<svg width="19" height="25" viewBox="0 0 19 25" fill="none" xmlns="http://www.w3.org/2000/svg">
<path d="M9.5 0.84465C4.3893 0.84465 0.224998 5.00895 0.224998 10.1197C0.224998 14.1447 4.18035 19.2554 6.80535 22.65L6.98035 22.8606C7.57507 23.6658 8.51979 24.1211 9.50007 24.1211C10.4803 24.1211 11.4251 23.6658 12.0198 22.8606C12.1948 22.6158 12.3698 22.4053 12.5803 22.1606C15.2053 18.8 18.775 14.1802 18.775 10.1212C18.775 5.01055 14.6107 0.84465 9.5 0.84465ZM11.8106 21.5643C11.6356 21.809 11.425 22.0537 11.25 22.2643C10.8303 22.8249 10.2 23.1393 9.5 23.1393C8.8 23.1393 8.16972 22.8249 7.75 22.2643L7.575 22.0538C5.01972 18.7643 1.20535 13.7931 1.20535 10.1181C1.20535 5.56805 4.91605 1.8234 9.5 1.8234C14.0857 1.8234 17.7946 5.5341 17.7946 10.1181C17.7946 13.8641 14.3304 18.3104 11.8106 21.5643Z" fill="#051C34"/>
<path d="M9.5 6.13035C7.33028 6.13035 5.58035 7.88035 5.58035 10.05C5.58035 12.2196 7.33035 13.9696 9.5 13.9696C11.6697 13.9696 13.4197 12.2196 13.4197 10.05C13.4197 7.88035 11.6697 6.13035 9.5 6.13035ZM9.5 12.9896C7.88944 12.9896 6.56056 11.6594 6.56056 10.0502C6.56056 8.43965 7.89084 7.11077 9.5 7.11077C11.1106 7.11077 12.4394 8.44105 12.4394 10.0502C12.4394 11.6608 11.1105 12.9896 9.5 12.9896Z" fill="#051C34"/>
</svg>
